<?xml version="1.0" encoding="UTF-8"?>
<svg width="33px" height="33px" viewBox="0 0 33 33" version="1.1" xmlns="http://www.w3.org/2000/svg" xmlns:xlink="http://www.w3.org/1999/xlink">
    <!-- Generator: Sketch 55.2 (78181) - https://sketchapp.com -->
    <title>Custom Preset Copy 2</title>
    <desc>Created with Sketch.</desc>
    <g id="Custom-Preset-Copy-2" stroke="none" stroke-width="1" fill="none" fill-rule="evenodd">
        <rect fill="#FFFFFF" opacity="0" x="0" y="0" width="33" height="33"></rect>
        <g id="shopping-bag" transform="translate(4.000000, 0.000000)" fill="#626363" fill-rule="nonzero">
            <path d="M24.9936127,27.1515652 L23.205161,6.89869435 C23.166837,6.44905878 22.7899847,6.10862042 22.3492591,6.10862042 L18.6701584,6.10862042 C18.6190598,2.72993026 15.8725089,0 12.5,0 C9.12749106,0 6.38094021,2.72993026 6.32984159,6.10862042 L2.65074093,6.10862042 C2.203628,6.10862042 1.833163,6.44905878 1.79483904,6.89869435 L0.00638732754,27.1515652 C0.00638732754,27.1772587 0,27.2029521 0,27.2286456 C0,29.5346337 2.10143076,31.4102564 4.68829842,31.4102564 L20.3117016,31.4102564 C22.8985692,31.4102564 25,29.5346337 25,27.2286456 C25,27.2029521 25,27.1772587 24.9936127,27.1515652 Z M12.5,1.73430864 C14.9207971,1.73430864 16.8944813,3.68701169 16.94558,6.10862042 L8.05442003,6.10862042 C8.10551865,3.68701169 10.0792029,1.73430864 12.5,1.73430864 Z M20.3117016,29.6759478 L4.68829842,29.6759478 C3.06591722,29.6759478 1.75012775,28.5968224 1.72457844,27.2671858 L3.43638222,7.84935242 L6.32345427,7.84935242 L6.32345427,10.4829322 C6.32345427,10.9646846 6.70669392,11.3500865 7.18574348,11.3500865 C7.66479305,11.3500865 8.0480327,10.9646846 8.0480327,10.4829322 L8.0480327,7.84935242 L16.94558,7.84935242 L16.94558,10.4829322 C16.94558,10.9646846 17.3288196,11.3500865 17.8078692,11.3500865 C18.2869188,11.3500865 18.6701584,10.9646846 18.6701584,10.4829322 L18.6701584,7.84935242 L21.5572305,7.84935242 L23.2754216,27.2671858 C23.2498723,28.5968224 21.9276955,29.6759478 20.3117016,29.6759478 Z" id="Shape"></path>
        </g>
    </g>
</svg>