<?xml version="1.0" standalone="no"?><!-- Generator: Gravit.io --><svg xmlns="http://www.w3.org/2000/svg" xmlns:xlink="http://www.w3.org/1999/xlink" style="isolation:isolate" viewBox="0 0 464 380" width="464" height="380"><defs><clipPath id="_clipPath_0jVIDCQ2vREJpUJQXLtF4mJrIAQm7eLC"><rect width="464" height="380"/></clipPath></defs><g clip-path="url(#_clipPath_0jVIDCQ2vREJpUJQXLtF4mJrIAQm7eLC)"><path d=" M 111.521 263.43 C 110.452 258.617 110.363 253.18 110.363 247.565 L 110.363 233.037 C 110.363 223.233 110.987 222.699 121.415 221.094 L 121.415 216.104 L 79.347 216.104 L 79.347 221.094 C 95.924 222.61 97.261 223.59 97.261 235.621 L 97.261 248.903 C 97.261 256.299 95.301 258.17 91.468 259.953 C 87.636 261.914 82.377 263.252 76.049 263.252 C 43.162 263.252 28.456 235.176 28.456 211.024 C 28.456 179.828 47.439 161.2 73.732 161.2 C 89.507 161.2 102.074 166.013 106.531 187.136 L 111.521 186.334 C 110.185 175.371 109.293 165.835 108.848 159.864 C 103.411 158.348 90.131 154.694 75.871 154.694 C 44.142 154.694 12.502 173.411 12.502 212.985 C 12.502 246.049 37.012 269.758 73.554 269.758 C 87.012 269.758 100.737 266.104 111.521 263.43 Z " fill="rgb(0,35,101)"/><path d=" M 132.031 162.537 C 146.113 163.696 147.628 164.32 147.628 178.58 L 147.628 245.694 C 147.628 260.131 146.113 260.934 132.031 261.824 L 132.031 267.084 L 175.881 267.084 L 175.881 261.824 C 161.978 260.934 160.373 260.311 160.373 245.694 L 160.373 178.58 C 160.373 164.32 161.978 163.696 175.881 162.537 L 175.881 157.368 L 132.031 157.368 L 132.031 162.537 Z " fill="rgb(0,35,101)"/><path d=" M 222.945 163.518 L 237.39 163.518 C 249.778 163.518 253.255 164.677 255.751 169.311 C 258.067 172.965 258.692 175.906 260.386 183.036 L 265.644 182.502 C 265.021 174.391 264.128 164.141 264.04 157.368 L 190.057 157.368 L 190.057 162.537 C 203.248 163.696 204.763 164.32 204.763 178.58 L 204.763 245.694 C 204.763 259.953 203.248 260.934 189.522 261.824 L 189.522 267.084 L 235.071 267.084 L 235.071 261.824 C 219.112 260.756 217.508 259.953 217.508 245.694 L 217.508 215.301 L 235.519 215.301 C 250.581 215.301 251.294 216.905 253.612 228.848 L 258.87 228.848 L 258.87 196.049 L 253.612 196.049 C 251.294 207.192 250.581 208.528 235.519 208.528 L 217.508 208.528 L 217.508 168.598 C 217.508 163.963 217.954 163.518 222.945 163.518 Z " fill="rgb(0,35,101)"/><path d=" M 279.198 153.268 C 278.843 162.626 277.862 173.411 277.237 183.304 L 282.675 183.304 C 284.636 175.906 285.972 171.272 287.843 168.42 C 289.983 164.677 293.458 163.518 306.204 163.518 L 318.058 163.518 L 318.058 246.049 C 318.058 259.508 316.632 260.934 300.856 261.824 L 300.856 267.084 L 348.718 267.084 L 348.718 261.824 C 332.317 260.934 330.981 259.33 330.981 246.049 L 330.981 163.518 L 343.726 163.518 C 356.472 163.518 358.788 164.677 361.462 168.598 C 363.423 171.272 364.761 175.282 366.364 183.304 L 371.89 182.502 C 370.999 173.233 370.196 161.2 370.196 153.268 L 366.274 153.268 C 363.78 156.387 362.8 157.368 358.343 157.368 L 292.122 157.368 C 287.487 157.368 285.349 157.011 282.853 153.268 L 279.198 153.268 Z " fill="rgb(0,35,101)"/><path d=" M 417.71 263.252 C 400.509 263.252 393.646 246.762 390.884 236.514 L 385.536 237.582 C 386.694 246.406 388.743 259.776 390.169 263.608 C 391.685 264.233 394.181 265.746 398.013 266.905 C 401.935 268.065 407.55 269.758 414.679 269.758 C 436.517 269.758 451.399 256.031 451.399 237.762 C 451.399 218.242 434.376 210.666 422.167 204.696 C 409.421 198.1 400.954 192.128 400.954 179.382 C 400.954 170.915 406.302 160.844 419.849 160.844 C 434.733 160.844 438.388 172.609 441.149 183.036 L 446.677 182.145 C 445.339 171.094 444.358 164.677 443.823 158.705 C 436.069 156.031 429.386 154.694 422.79 154.694 C 401.489 154.694 388.743 168.42 388.743 184.463 C 388.743 203.893 406.392 212.004 416.372 217.262 C 428.94 224.035 438.388 229.828 438.388 242.93 C 438.388 255.141 430.901 263.252 417.71 263.252 Z " fill="rgb(0,35,101)"/><path d=" M 23.43 337.74 C 22.285 338.301 21.038 338.584 19.722 338.584 C 19.021 338.584 17.863 338.408 16.285 338.065 C 14.333 337.614 13.067 337.395 12.415 337.395 C 11.308 337.395 9.634 337.787 7.297 338.596 C 3.915 339.766 3.634 340.237 3.634 340.653 C 3.634 340.688 3.639 340.725 3.649 340.758 C 3.715 340.983 3.884 341.143 4.127 341.211 C 4.379 341.285 4.595 341.164 4.706 341.074 C 5.751 340.531 6.864 340.258 8.014 340.258 C 8.717 340.258 9.829 340.432 11.32 340.776 C 12.63 341.074 13.902 341.227 15.1 341.227 C 16.394 341.227 18.282 340.846 20.712 340.096 C 24.29 338.992 24.586 338.522 24.586 338.1 C 24.586 337.561 23.967 337.375 23.43 337.74 Z " fill="rgb(0,35,101)"/><path d=" M 145.675 345.53 C 143.544 348.28 141.282 349.674 138.952 349.674 C 137.777 349.674 136.825 349.319 136.038 348.586 C 135.26 347.864 134.881 346.989 134.881 345.912 C 134.881 345.67 134.906 345.43 134.953 345.192 C 135.235 344.692 135.447 344.174 135.613 343.641 C 135.744 343.444 135.882 343.246 136.046 343.053 C 136.826 342.137 137.757 341.549 138.811 341.305 C 141.84 340.651 143.375 339.342 143.375 337.418 C 143.375 336.75 143.141 336.164 142.676 335.67 C 145.256 332.528 147.272 330.043 148.802 328.123 C 148.763 328.744 148.743 329.44 148.743 330.199 C 148.743 331.817 148.773 333.076 148.833 333.944 C 148.89 334.805 148.919 335.678 148.919 336.537 C 148.919 339.723 147.828 342.748 145.675 345.53 Z  M 128.114 345.53 C 125.983 348.28 123.721 349.674 121.391 349.674 C 120.216 349.674 119.264 349.319 118.477 348.586 C 117.699 347.864 117.32 346.989 117.32 345.912 C 117.32 344.924 117.712 343.961 118.485 343.053 C 119.265 342.137 120.196 341.549 121.25 341.305 C 124.279 340.651 125.814 339.342 125.814 337.418 C 125.814 336.75 125.58 336.164 125.115 335.67 C 127.695 332.528 129.711 330.043 131.241 328.123 C 131.202 328.744 131.182 329.44 131.182 330.199 C 131.182 331.817 131.212 333.076 131.271 333.944 C 131.329 334.805 131.358 335.678 131.358 336.537 C 131.358 339.723 130.267 342.748 128.114 345.53 Z  M 46.301 348.883 C 35.447 348.883 33.169 347.219 33.169 345.824 C 33.169 344.379 34.981 343.647 38.557 343.647 C 42.017 343.647 48.536 345.127 57.948 348.049 C 54.415 348.602 50.506 348.883 46.301 348.883 Z  M 107.24 300.338 C 110.932 296.016 113.842 293.824 115.889 293.824 C 116.456 293.824 116.57 294.051 116.57 294.418 C 116.57 296.137 114.291 299.676 109.794 304.936 C 105.647 309.785 101.263 314.164 96.744 317.967 C 100.571 309.951 104.099 304.026 107.24 300.338 Z  M 111.84 330.244 C 114.296 328.156 116.281 327.098 117.738 327.098 C 118.765 327.098 118.903 327.621 118.903 328.131 C 118.903 329.752 117.478 331.535 114.667 333.432 C 112.019 335.219 108.791 336.655 105.06 337.705 C 107.273 334.696 109.551 332.19 111.84 330.244 Z  M 155.787 319.174 C 155.787 318.457 155.384 318.03 154.708 318.03 C 153.585 318.03 152.46 318.824 151.364 320.391 C 150.328 321.869 149.545 323.662 149.038 325.719 C 147.312 327.905 145.91 329.641 144.867 330.887 L 141.52 334.987 C 141.309 334.92 141.083 334.887 140.844 334.887 C 139.055 334.887 137.318 335.989 135.681 338.16 C 135.609 338.256 135.547 338.354 135.478 338.449 C 135.289 337.826 135.063 337.178 134.764 336.481 C 133.235 332.848 132.46 330.17 132.46 328.528 C 132.46 327.908 132.54 327.172 132.695 326.34 C 137.65 321.625 138.226 319.992 138.226 319.174 C 138.226 318.457 137.823 318.03 137.147 318.03 C 136.024 318.03 134.899 318.824 133.803 320.391 C 132.767 321.869 131.984 323.662 131.477 325.719 C 129.75 327.905 128.349 329.641 127.306 330.887 L 123.958 334.987 C 123.748 334.92 123.522 334.887 123.283 334.887 C 121.494 334.887 119.757 335.989 118.12 338.16 C 116.817 339.891 116.043 341.682 115.79 343.506 C 111.646 347.778 107.996 349.938 104.89 349.938 C 104.798 349.938 104.721 349.926 104.632 349.924 C 104.832 349.631 104.887 349.414 104.887 349.235 C 104.887 349.194 104.88 349.153 104.867 349.115 C 104.8 348.918 104.639 348.768 104.387 348.666 C 104.227 348.604 104.172 348.574 103.513 348.955 C 103.277 349.168 103.036 349.362 102.794 349.553 C 101.702 349.057 101.168 348.073 101.168 346.528 C 101.168 344.615 102.125 342.184 104.013 339.295 C 110.394 338.012 115.026 336.61 117.783 335.129 C 120.659 333.584 122.118 331.66 122.118 329.408 C 122.118 328.387 121.695 327.514 120.862 326.811 C 120.048 326.123 119.056 325.776 117.914 325.776 C 115.425 325.776 112.181 326.858 108.271 328.99 C 100.812 333.063 97.029 337.867 97.029 343.272 C 97.029 345.59 97.767 347.551 99.223 349.096 C 99.827 349.739 100.497 350.24 101.223 350.619 C 99.444 351.651 97.527 352.184 95.492 352.184 C 93.416 352.184 91.216 351.928 88.951 351.422 C 86.747 350.93 80.156 349.225 69.35 346.35 C 75.392 344.623 80.305 341.996 83.969 338.528 C 87.875 334.828 91.711 328.897 95.372 320.893 C 100.186 317.352 105.207 312.571 110.297 306.678 C 115.526 300.625 118.068 296.615 118.068 294.418 C 118.068 293.155 117.294 292.459 115.889 292.459 C 112.878 292.459 108.715 295.289 103.162 301.114 C 100.373 304.049 97.947 306.996 95.952 309.873 C 93.878 312.85 90.508 318.244 85.935 325.905 C 80.485 330.51 75.839 333.781 72.127 335.629 C 68.427 337.473 64.656 338.406 60.917 338.406 C 56.601 338.406 53.168 337.299 50.714 335.114 C 48.271 332.94 47.032 329.895 47.032 326.063 C 47.032 317.778 50.59 309.69 57.607 302.022 C 64.615 294.364 72.037 290.479 79.666 290.479 C 82.779 290.479 85.366 291.43 87.354 293.303 C 89.334 295.172 90.339 297.592 90.339 300.492 C 90.339 305.977 87.608 311.914 82.222 318.137 C 76.85 324.344 71.74 327.492 67.035 327.492 C 65.055 327.492 63.384 326.903 62.068 325.737 C 60.747 324.571 60.104 323.151 60.104 321.397 C 60.104 319.887 60.336 319.223 60.585 319.076 C 60.614 319.194 60.647 319.442 60.631 319.928 C 60.598 320.664 60.777 321.242 61.165 321.647 C 61.579 322.08 62.222 322.301 63.074 322.301 C 64.058 322.301 64.949 321.883 65.724 321.061 C 66.492 320.244 66.882 319.291 66.882 318.229 C 66.882 316.227 65.809 315.168 63.778 315.168 C 62.32 315.168 61.046 315.799 59.993 317.039 C 58.956 318.264 58.43 319.729 58.43 321.397 C 58.43 323.551 59.248 325.391 60.862 326.867 C 62.466 328.334 64.455 329.078 66.771 329.078 C 72.111 329.078 77.7 325.793 83.381 319.313 C 89.05 312.846 91.925 306.485 91.925 300.403 C 91.925 296.903 90.719 294.082 88.341 292.022 C 85.977 289.975 82.777 288.938 78.831 288.938 C 70.379 288.938 62.259 292.571 54.696 299.735 C 47.127 306.906 43.29 314.608 43.29 322.629 C 43.29 327.903 44.874 332.153 47.999 335.262 C 51.123 338.373 55.366 339.949 60.609 339.949 C 67.665 339.949 75.294 336.655 83.313 330.147 C 80.183 334.711 77.517 338.09 75.37 340.211 C 72.938 342.614 70.122 344.457 67 345.696 C 56.255 342.903 48.047 341.489 42.604 341.489 C 35.247 341.489 31.67 342.906 31.67 345.824 C 31.67 348.92 36.312 350.424 45.861 350.424 C 51.017 350.424 56.102 349.94 60.975 348.985 C 68.539 351.397 74.249 353.004 77.949 353.762 C 81.683 354.526 85.616 354.914 89.64 354.914 C 95.176 354.914 99.467 353.895 102.395 351.885 C 102.697 351.672 102.956 351.481 103.19 351.301 C 103.666 351.389 104.159 351.438 104.672 351.438 C 107.891 351.438 111.592 349.416 115.715 345.436 C 115.836 347.156 116.463 348.569 117.589 349.639 C 118.844 350.832 120.538 351.438 122.623 351.438 C 126.209 351.438 129.358 350.434 131.981 348.457 C 132.579 348.006 133.1 347.531 133.564 347.039 C 133.87 348.051 134.397 348.922 135.15 349.639 C 136.405 350.832 138.099 351.438 140.184 351.438 C 143.771 351.438 146.919 350.434 149.542 348.457 C 152.197 346.453 153.542 344.043 153.542 341.291 C 153.542 339.985 153.132 338.365 152.325 336.481 C 150.796 332.848 150.021 330.17 150.021 328.528 C 150.021 327.908 150.101 327.172 150.256 326.34 C 155.211 321.625 155.787 319.992 155.787 319.174 Z " fill="rgb(0,35,101)"/><path d=" M 200.784 338.69 C 202.538 340.84 204.76 341.93 207.391 341.93 C 209.264 341.93 210.922 341.323 212.322 340.123 C 213.738 338.908 214.456 337.451 214.456 335.789 C 214.456 332.897 212.72 332.289 211.264 332.289 C 210.227 332.289 209.323 332.666 208.578 333.412 C 207.833 334.156 207.456 335.09 207.456 336.186 C 207.456 338.496 208.785 338.981 209.899 338.981 C 210.688 338.981 211.301 338.813 211.725 338.481 C 211.579 338.754 211.224 339.115 210.441 339.557 C 209.463 340.108 208.496 340.387 207.566 340.387 C 205.56 340.387 203.987 339.594 202.761 337.963 C 201.525 336.321 200.899 334.139 200.899 331.477 C 200.899 324.688 204.483 317.615 211.552 310.459 C 218.62 303.305 225.586 299.678 232.258 299.678 C 235.808 299.678 238.651 300.729 240.71 302.803 C 242.751 304.86 243.796 307.68 243.813 311.188 C 241.741 315.405 238.341 318.848 233.704 321.422 C 233.067 321.781 232.808 322.053 232.808 322.365 C 232.808 322.807 233.094 323.092 233.536 323.092 C 234.187 323.092 235.462 322.711 239.009 319.405 C 240.954 317.594 242.468 315.942 243.53 314.471 C 242.276 323.018 237.733 331.323 230.009 339.18 C 221.818 347.516 213.571 351.742 205.498 351.742 C 201.575 351.742 198.328 350.406 195.846 347.772 C 193.358 345.129 192.097 341.651 192.097 337.43 C 192.097 330.701 194.313 323.799 198.686 316.914 C 202.862 310.248 208.288 304.709 214.813 300.449 C 221.615 296.024 228.434 293.78 235.079 293.78 C 238.372 293.78 241.06 294.66 243.063 296.395 C 245.052 298.117 246.06 300.43 246.06 303.264 C 246.06 304.049 245.976 304.84 245.813 305.627 C 244.804 303.582 243.171 301.875 240.948 300.545 C 238.378 299.004 235.425 298.225 232.17 298.225 C 224.623 298.225 216.991 301.85 209.486 309 C 201.977 316.156 198.169 323.451 198.169 330.684 C 198.169 333.869 199.049 336.563 200.784 338.69 Z  M 247.997 314.883 C 247.997 312.602 247.603 310.272 246.825 307.957 C 247.28 306.133 247.513 304.524 247.513 303.176 C 247.513 299.787 246.243 297.037 243.743 295.006 C 241.265 292.994 237.919 291.975 233.8 291.975 C 229.698 291.975 225.042 292.901 219.961 294.725 C 214.89 296.547 210.261 298.963 206.205 301.903 C 200.497 305.963 195.9 310.873 192.544 316.496 C 189.18 322.133 187.474 327.75 187.474 333.194 C 187.474 339.16 189.203 344.074 192.612 347.793 C 196.03 351.526 200.543 353.418 206.026 353.418 C 210.165 353.418 214.768 352.334 219.709 350.196 C 224.634 348.065 229.308 345.135 233.601 341.49 C 238.075 337.723 241.63 333.446 244.167 328.772 C 246.708 324.088 247.997 319.416 247.997 314.883 Z " fill="rgb(0,35,101)"/><path d=" M 311.001 317.235 C 310.021 318.199 309.524 319.231 309.524 320.297 C 309.524 321.817 310.36 322.653 311.88 322.653 C 313.007 322.653 314.052 322.162 314.989 321.196 C 315.919 320.235 316.392 319.176 316.392 318.053 C 316.392 316.59 315.585 315.785 314.124 315.785 C 313.028 315.785 311.978 316.274 311.001 317.235 Z " fill="rgb(2,70,109)"/><path d=" M 398.044 373.739 C 395.052 377.016 392.021 378.678 389.034 378.678 C 386.767 378.678 385.712 377.748 385.712 375.752 C 385.712 370.651 392.38 364.75 405.53 358.219 C 407.177 357.405 408.435 356.778 409.292 356.342 C 404.841 364.586 401.058 370.438 398.044 373.739 Z  M 364.396 340.1 C 358.302 348.305 355.474 350.028 354.177 350.028 C 352.69 350.028 351.999 349.237 351.999 347.541 C 351.999 344.389 354.183 340.16 358.491 334.973 C 362.782 329.807 366.261 327.186 368.833 327.186 C 369.942 327.186 370.438 327.737 370.438 328.967 C 370.438 330.93 368.405 334.676 364.396 340.1 Z  M 272.622 350.028 C 271.743 350.028 270.575 349.76 270.575 347.453 C 270.575 344.33 272.729 340.123 276.981 334.949 C 281.216 329.799 284.634 327.186 287.146 327.186 C 288.376 327.186 288.927 327.789 288.927 329.143 C 288.927 330.672 287.409 333.637 284.419 337.949 C 277.417 347.932 274.138 350.028 272.622 350.028 Z  M 435.489 335.656 C 435.251 335.656 435.019 335.801 434.399 336.592 C 431.376 340.481 428.604 343.531 426.167 345.66 C 423.991 347.557 421.343 349.358 418.278 351.02 C 424.185 340.428 428.946 332.252 432.438 326.703 C 432.519 326.576 432.515 326.416 432.433 326.293 C 432.351 326.172 432.204 326.108 432.058 326.133 C 430.911 326.334 429.942 326.436 429.175 326.436 C 428.229 326.436 427.421 326.379 426.774 326.266 C 426.624 326.239 426.464 326.311 426.386 326.446 L 422.337 333.356 C 415.866 344.418 411.058 350.028 408.048 350.028 C 407.06 350.028 406.618 349.531 406.618 348.42 C 406.618 347.627 407.249 345.656 410.259 340.783 L 418.929 326.699 C 419.005 326.574 419.003 326.418 418.923 326.295 C 418.841 326.174 418.696 326.108 418.554 326.131 C 417.231 326.334 416.185 326.436 415.442 326.436 C 414.585 326.436 413.821 326.379 413.175 326.266 C 413.024 326.239 412.868 326.309 412.788 326.444 C 412.788 326.444 406.704 336.451 406.44 336.74 C 403.823 340.416 401.403 342.28 399.251 342.28 C 398.22 342.28 396.849 341.936 396.849 338.959 C 396.849 338.143 397.038 337.09 397.415 335.828 L 397.813 335.492 C 399.104 334.699 400.075 334.098 400.724 333.684 C 404.956 330.975 407.015 328.899 407.015 327.34 C 407.015 326.756 406.788 325.776 405.276 325.776 C 403.833 325.776 402.282 326.678 400.534 328.535 C 398.874 330.297 397.464 332.512 396.341 335.115 C 395.69 335.645 395.021 336.25 394.335 336.924 C 395.624 334.461 396.276 332.371 396.276 330.684 C 396.276 326.627 394.153 325.776 392.374 325.776 C 391.253 325.776 389.046 326.729 382.856 334.973 C 382.856 334.973 382.034 336.125 381.979 336.217 C 379.331 340.117 376.591 343.446 374.028 346.108 C 370.915 349.348 369.39 350.028 368.659 350.028 C 368.032 350.028 367.315 349.834 367.315 348.332 C 367.315 346.971 368.659 344.03 371.31 339.592 L 379.101 326.698 C 379.177 326.571 379.173 326.414 379.091 326.293 C 379.009 326.172 378.872 326.112 378.72 326.133 C 377.483 326.334 376.468 326.436 375.698 326.436 C 375.054 326.436 374.298 326.336 373.45 326.137 C 373.284 326.098 373.114 326.176 373.034 326.328 L 371.845 328.592 C 371.772 326.748 370.704 325.776 368.745 325.776 C 366.548 325.776 363.644 326.77 360.114 328.727 C 354.646 331.713 351.015 335.049 349.247 338.686 C 342.587 347.969 339.329 350.028 337.763 350.028 C 336.759 350.028 336.331 349.6 336.331 348.598 C 336.331 347.865 337.038 345.934 340.405 340.883 C 343.171 336.733 344.517 333.713 344.517 331.653 C 344.517 330.014 344.042 328.615 343.108 327.494 C 342.157 326.354 340.966 325.776 339.563 325.776 C 337.888 325.776 336.062 326.699 334.136 328.52 C 332.886 329.699 331.271 331.567 329.31 334.092 C 329.825 332.821 330.081 331.721 330.081 330.772 C 330.081 329.432 329.698 328.258 328.942 327.285 C 328.167 326.283 327.206 325.776 326.091 325.776 C 325.007 325.776 322.854 326.729 316.71 334.965 C 316.71 334.965 315.608 336.457 315.565 336.549 C 307.501 347.969 303.858 350.028 302.157 350.028 C 300.983 350.028 300.46 349.531 300.46 348.42 C 300.46 347.205 301.167 345.42 302.562 343.115 L 312.552 326.698 C 312.626 326.574 312.624 326.418 312.544 326.297 C 312.464 326.176 312.323 326.108 312.179 326.131 C 310.767 326.334 309.659 326.436 308.888 326.436 C 308.388 326.436 307.688 326.336 306.813 326.137 C 306.653 326.096 306.489 326.172 306.407 326.313 C 306.407 326.313 300.507 336.131 300.458 336.215 C 292.61 347.631 288.888 350.028 287.149 350.028 C 286.157 350.028 285.716 349.531 285.716 348.42 C 285.716 347.584 286.462 345.313 290.021 339.237 C 292.884 334.387 299.886 323.108 310.833 305.709 C 310.909 305.588 310.911 305.436 310.837 305.315 C 310.765 305.194 310.647 305.123 310.487 305.135 C 308.542 305.28 307.944 305.311 307.788 305.311 C 306.89 305.311 305.964 305.168 305.034 304.887 C 304.872 304.832 304.692 304.905 304.604 305.053 L 290.333 328.957 C 290.335 328.901 290.337 328.846 290.337 328.791 C 290.337 326.819 289.263 325.776 287.233 325.776 C 284.442 325.776 280.583 327.381 275.761 330.547 C 272.937 332.393 270.767 334.358 269.241 336.424 C 269.149 336.52 269.054 336.621 268.946 336.74 C 266.329 340.416 263.909 342.28 261.757 342.28 C 260.724 342.28 259.353 341.936 259.353 338.959 C 259.353 338.141 259.544 337.088 259.921 335.828 L 260.317 335.492 C 261.61 334.699 262.581 334.098 263.228 333.684 C 267.462 330.973 269.521 328.899 269.521 327.34 C 269.521 326.756 269.294 325.776 267.78 325.776 C 266.356 325.776 264.763 326.703 263.04 328.535 C 261.378 330.301 259.966 332.514 258.845 335.117 C 258.194 335.647 257.524 336.252 256.839 336.926 C 258.128 334.463 258.78 332.371 258.78 330.684 C 258.78 326.627 256.659 325.776 254.88 325.776 C 253.757 325.776 251.55 326.729 245.36 334.973 L 244.606 336.03 C 244.466 336.17 244.372 336.354 244.321 336.649 C 244.321 336.965 244.497 337.205 244.872 337.287 C 245.333 337.287 245.675 336.836 245.886 336.506 C 251.153 328.803 253.493 327.186 254.53 327.186 C 254.839 327.186 255.169 327.252 255.169 328.043 C 255.169 328.961 254.239 331.565 249.812 338.762 L 242.593 350.469 C 242.521 350.588 242.519 350.74 242.591 350.86 C 242.665 350.981 242.802 351.059 242.938 351.039 C 245.106 350.887 245.536 350.865 245.599 350.865 C 245.851 350.865 246.759 350.924 248.298 351.039 C 248.308 351.041 248.317 351.041 248.327 351.041 C 248.46 351.041 248.583 350.971 248.651 350.856 C 251.481 346.01 253.495 342.762 254.638 341.205 C 255.579 339.916 256.771 338.6 258.188 337.281 C 258.024 338.057 257.942 338.737 257.942 339.311 C 257.942 342.821 259.968 343.559 261.669 343.559 C 263.353 343.559 265.132 342.692 266.972 341.008 C 266.708 341.994 266.569 342.998 266.569 344.02 C 266.569 346.123 267.13 347.897 268.233 349.291 C 269.36 350.715 270.778 351.438 272.446 351.438 C 274.776 351.438 278.036 348.627 282.376 342.864 C 282.079 343.862 281.929 344.791 281.929 345.649 C 281.929 347.317 282.388 348.709 283.296 349.785 C 284.216 350.881 285.425 351.438 286.888 351.438 C 289.274 351.438 292.632 348.647 297.095 342.951 C 296.671 344.112 296.452 345.102 296.452 345.912 C 296.452 347.471 296.954 348.793 297.942 349.844 C 298.938 350.901 300.194 351.438 301.675 351.438 C 304.739 351.438 308.974 347.623 314.624 339.778 C 314.624 339.778 316.731 336.879 317.003 336.487 C 322.378 328.78 324.806 327.186 325.743 327.186 C 326.12 327.186 326.47 327.301 326.47 328.131 C 326.47 329.147 325.464 331.959 320.673 339.594 L 313.808 350.465 C 313.731 350.588 313.731 350.744 313.81 350.867 C 313.886 350.99 314.03 351.055 314.173 351.037 C 315.062 350.922 316.022 350.865 317.03 350.865 C 317.312 350.865 318.175 350.924 319.595 351.039 C 319.741 351.055 319.882 350.977 319.952 350.85 C 328.759 335.147 335.313 327.186 339.433 327.186 C 340.481 327.186 340.95 327.627 340.95 328.615 C 340.95 329.225 340.343 330.852 337.45 335.137 C 335.163 338.481 333.724 340.754 333.175 341.899 C 332.608 343.074 332.323 344.365 332.323 345.737 C 332.323 347.321 332.806 348.676 333.759 349.768 C 334.726 350.875 335.94 351.438 337.37 351.438 C 339.501 351.438 342.29 349.346 345.896 345.043 C 346.745 344.03 347.478 343.143 348.118 342.356 C 348.042 342.905 347.991 343.459 347.991 344.02 C 347.991 346.121 348.552 347.895 349.657 349.291 C 350.782 350.715 352.198 351.438 353.868 351.438 C 355.425 351.438 357.036 350.678 358.655 349.18 C 359.903 348.026 361.601 346.01 363.716 343.172 C 363.474 344.061 363.353 344.916 363.353 345.737 C 363.353 347.346 363.812 348.707 364.718 349.785 C 365.64 350.881 366.849 351.438 368.31 351.438 C 370.444 351.438 373.22 349.346 376.794 345.045 C 381.39 339.594 383.216 336.61 383.282 336.506 C 388.55 328.803 390.989 327.186 392.026 327.186 C 392.335 327.186 392.665 327.252 392.665 328.043 C 392.665 328.959 391.735 331.563 387.306 338.762 L 380.089 350.469 C 380.017 350.588 380.015 350.74 380.087 350.86 C 380.161 350.981 380.302 351.059 380.435 351.039 C 382.603 350.887 383.03 350.865 383.093 350.865 C 383.267 350.865 383.876 350.895 385.792 351.039 C 385.802 351.041 385.812 351.041 385.821 351.041 C 385.954 351.041 386.077 350.971 386.146 350.856 C 388.968 346.022 390.983 342.776 392.132 341.205 C 393.075 339.916 394.267 338.6 395.685 337.281 C 395.521 338.057 395.438 338.737 395.438 339.311 C 395.438 342.821 397.464 343.559 399.163 343.559 C 400.772 343.559 402.47 342.77 404.224 341.231 C 403.296 343.198 402.831 344.75 402.831 345.912 C 402.831 347.379 403.313 348.676 404.267 349.768 C 405.231 350.875 406.386 351.438 407.696 351.438 C 409.194 351.438 410.688 350.744 412.136 349.375 C 412.946 348.608 414.048 347.34 415.431 345.584 L 410.497 354.358 L 409.962 354.68 C 407.743 355.672 406.052 356.459 404.94 357.016 C 391.083 363.451 384.347 369.551 384.347 375.664 C 384.347 376.881 384.794 377.92 385.675 378.754 C 386.55 379.58 387.649 380 388.946 380 C 392.54 380 396.81 378.033 401.636 374.153 C 406.288 370.412 410.806 364.647 415.063 357.01 L 417.171 353.231 C 422.896 350.073 427.61 346.487 431.185 342.569 C 436.13 337.098 436.13 336.596 436.13 336.295 C 436.13 335.914 435.872 335.656 435.489 335.656 Z " fill="rgb(0,35,101)"/><path d=" M 459.112 337.74 C 457.968 338.301 456.722 338.584 455.405 338.584 C 454.704 338.584 453.546 338.408 451.968 338.065 C 450.015 337.614 448.749 337.395 448.099 337.395 C 446.991 337.395 445.317 337.787 442.981 338.596 C 439.597 339.764 439.317 340.237 439.317 340.653 C 439.317 340.69 439.321 340.725 439.333 340.76 C 439.399 340.983 439.569 341.143 439.81 341.211 C 440.067 341.287 440.278 341.164 440.39 341.074 C 441.435 340.531 442.548 340.258 443.698 340.258 C 444.401 340.258 445.513 340.432 447.003 340.776 C 448.313 341.074 449.587 341.227 450.784 341.227 C 452.077 341.227 453.966 340.846 456.396 340.096 C 459.972 338.992 460.269 338.522 460.269 338.1 C 460.269 337.563 459.649 337.377 459.112 337.74 Z " fill="rgb(0,35,101)"/><path d=" M 156.418 90.908 C 158.066 92.382 157.754 90.751 157.029 89.437 C 155.053 85.851 153.564 82.062 153.254 77.861 C 151.92 59.777 167.468 57.028 168.066 56.923 C 170.429 56.508 169.931 54.003 168.716 52.861 C 167.254 51.486 165.227 51.81 163.428 52.197 C 159.329 53.08 156.132 55.69 153.369 58.851 C 146.483 66.737 146.12 77.244 152.365 86.168 C 153.554 87.874 154.868 89.523 156.418 90.908 Z " fill="rgb(0,35,101)"/><path d=" M 196.826 72.249 C 198.307 73.291 199.94 74.038 201.509 74.91 C 201.697 75.02 201.925 75.042 202.139 75.099 C 202.167 75.035 202.203 74.972 202.237 74.905 C 201.812 74.502 201.375 74.091 200.932 73.709 C 198.219 71.351 195.808 68.679 194.131 65.303 C 191.778 60.544 191.715 55.845 193.649 51.514 C 194.927 48.646 196.717 46.105 198.29 43.421 C 198.541 42.985 198.86 42.599 199.096 42.141 C 199.736 40.879 199.231 39.817 197.854 39.588 C 196.268 39.322 194.856 39.806 193.626 40.685 C 190.825 42.694 189.296 45.848 188.281 49.325 C 185.758 57.997 189.061 66.807 196.826 72.249 Z " fill="rgb(0,35,101)"/><path d=" M 195.436 116.159 C 195.49 113.882 193.909 111.62 192.226 111.56 C 190.899 111.515 189.865 112.917 189.849 114.784 C 189.827 117.145 191.362 119.268 193.106 119.26 C 194.426 119.255 195.39 117.971 195.436 116.159 Z " fill="rgb(0,35,101)"/><path d=" M 176.824 118.452 C 175.498 118.412 174.462 119.594 174.447 121.16 C 174.423 123.15 175.96 124.936 177.704 124.928 C 179.023 124.925 179.995 123.845 180.035 122.321 C 180.088 120.404 178.514 118.501 176.824 118.452 Z " fill="rgb(0,35,101)"/><path d=" M 212.601 114.472 C 213.982 114.5 215.09 112.805 215.07 110.71 C 215.04 108.359 213.635 106.286 212.104 106.323 C 210.749 106.367 209.662 108.094 209.677 110.18 C 209.696 112.406 211.082 114.448 212.601 114.472 Z " fill="rgb(0,35,101)"/><path d=" M 281.31 129.019 C 282.128 128.868 282.067 127.798 281.048 127.169 C 279.026 125.924 276.909 124.777 274.718 123.904 C 267.847 121.175 260.624 119.213 253.325 118.514 C 246.142 117.83 238.966 117.573 231.807 117.729 C 224.647 117.573 217.473 117.83 210.289 118.514 C 202.99 119.213 195.767 121.175 188.896 123.904 C 186.705 124.777 184.586 125.924 182.566 127.169 C 181.545 127.798 181.485 128.868 182.304 129.019 C 198.995 132.092 216.351 133.036 231.807 132.955 C 247.263 133.036 264.618 132.092 281.31 129.019 Z " fill="rgb(0,35,101)"/><path d=" M 295.548 56.923 C 296.146 57.028 311.692 59.777 310.36 77.861 C 310.05 82.062 308.562 85.851 306.585 89.437 C 305.86 90.751 305.548 92.382 307.194 90.908 C 308.745 89.523 310.06 87.874 311.249 86.168 C 317.493 77.244 317.13 66.737 310.245 58.851 C 307.481 55.69 304.284 53.08 300.185 52.197 C 298.386 51.81 296.36 51.486 294.897 52.861 C 293.683 54.003 293.185 56.508 295.548 56.923 Z " fill="rgb(0,35,101)"/><path d=" M 262.104 74.91 C 263.673 74.038 265.308 73.291 266.788 72.249 C 274.554 66.807 277.856 57.997 275.333 49.325 C 274.317 45.848 272.788 42.694 269.987 40.685 C 268.757 39.806 267.347 39.322 265.761 39.588 C 264.382 39.817 263.878 40.879 264.519 42.141 C 264.753 42.599 265.073 42.985 265.323 43.421 C 266.897 46.105 268.687 48.646 269.964 51.514 C 271.899 55.845 271.835 60.544 269.483 65.303 C 267.806 68.679 265.396 71.351 262.683 73.709 C 262.239 74.091 261.802 74.502 261.376 74.905 C 261.411 74.972 261.446 75.035 261.476 75.099 C 261.688 75.042 261.917 75.02 262.104 74.91 Z " fill="rgb(0,35,101)"/><path d=" M 273.765 114.784 C 273.749 112.917 272.714 111.515 271.388 111.56 C 269.704 111.62 268.124 113.882 268.177 116.159 C 268.224 117.971 269.188 119.255 270.507 119.26 C 272.251 119.268 273.786 117.145 273.765 114.784 Z " fill="rgb(0,35,101)"/><path d=" M 285.909 124.928 C 287.653 124.936 289.19 123.15 289.167 121.16 C 289.151 119.594 288.116 118.412 286.79 118.452 C 285.101 118.501 283.526 120.404 283.579 122.321 C 283.618 123.845 284.591 124.925 285.909 124.928 Z " fill="rgb(0,35,101)"/><path d=" M 253.937 110.18 C 253.952 108.094 252.864 106.367 251.509 106.323 C 249.978 106.286 248.573 108.359 248.544 110.71 C 248.522 112.805 249.632 114.5 251.013 114.472 C 252.532 114.448 253.917 112.406 253.937 110.18 Z " fill="rgb(0,35,101)"/><clipPath id="_clipPath_pzrF5v0IJgPJS1tsotVuIKgT7xbuY3tE"><path d=" M 0.06 0.052 L 463.613 0.052 L 463.613 380 L 0.06 380 L 0.06 0.052 Z " fill="rgb(255,255,255)"/></clipPath><g clip-path="url(#_clipPath_pzrF5v0IJgPJS1tsotVuIKgT7xbuY3tE)"><g id="Group"><path d=" M 235.243 109.626 C 235.243 106.676 233.706 104.283 231.807 104.258 C 229.908 104.283 228.372 106.676 228.372 109.626 C 228.372 112.579 229.908 114.97 231.807 114.995 C 233.706 114.97 235.243 112.579 235.243 109.626 Z " fill="rgb(0,35,101)"/><path d=" M 338.269 132.226 C 329.56 134.585 319.153 136.144 310.769 131.775 C 307.341 129.771 304.956 126.038 305.003 122.144 C 305.813 114.42 314.188 109.842 320.544 107.573 C 330.487 104.434 342.622 104.198 352.489 107.364 C 351.146 109.888 348.212 112.563 345.896 114.35 C 336.679 121.476 327.06 124.9 316.173 127.575 C 314.8 127.91 314.507 128.382 314.429 129.107 C 314.397 130.385 315.927 131.157 316.853 131.326 C 327.384 133.334 337.673 130.512 347.007 127.197 C 355.298 124.251 363.204 121.082 371.757 119.357 C 360.394 123.063 349.747 128.706 338.269 132.226 Z  M 303.722 106.916 C 292.024 112.845 321.53 87.18 332.942 84.98 C 340.476 83.521 348.644 84.458 353.692 90.646 C 356.333 94.283 356.688 100.161 354.472 104.125 C 337.944 98.042 323.442 95.402 303.722 106.916 Z  M 371.095 117.94 C 354.804 121.009 340.114 130.362 322.644 129.841 C 321.438 129.721 320.212 129.652 319.054 129.393 C 331.899 125.212 346.56 117.759 353.81 107.812 C 359.005 109.344 366.862 113.389 371.095 117.94 Z  M 159.892 106.916 C 140.17 95.402 125.669 98.042 109.141 104.125 C 106.925 100.161 107.281 94.283 109.92 90.646 C 114.969 84.458 123.137 83.521 130.671 84.98 C 142.083 87.18 171.588 112.845 159.892 106.916 Z  M 143.07 107.573 C 149.424 109.842 157.8 114.42 158.611 122.144 C 158.658 126.038 156.272 129.771 152.844 131.775 C 144.46 136.144 134.053 134.585 125.345 132.226 C 113.866 128.706 103.219 123.063 91.856 119.357 C 100.41 121.082 108.315 124.251 116.606 127.197 C 125.94 130.512 136.23 133.334 146.76 131.326 C 147.687 131.157 149.215 130.385 149.185 129.107 C 149.107 128.382 148.814 127.91 147.44 127.575 C 136.554 124.9 126.935 121.476 117.718 114.35 C 115.402 112.563 112.468 109.888 111.125 107.364 C 120.991 104.198 133.126 104.434 143.07 107.573 Z  M 109.804 107.812 C 117.054 117.759 131.714 125.212 144.56 129.393 C 143.402 129.652 142.175 129.721 140.97 129.841 C 123.5 130.362 108.809 121.009 92.519 117.94 C 96.751 113.389 104.609 109.344 109.804 107.812 Z  M 462.87 133.998 C 461.819 132.72 459.071 130.146 453.544 127.575 C 438.29 120.472 418.812 124.251 405.587 126.51 C 402.167 117.639 389.421 114.335 374.522 117.257 C 368.052 110.321 361.552 107.603 355.724 104.693 C 357.97 100.443 358.294 94.236 356.124 89.77 C 351.593 81.957 342.915 80.409 334.501 81.436 C 322.265 82.93 300.776 98.944 291.909 101.115 C 289.991 101.584 287.987 101.979 286.003 102.033 C 284.019 102.075 283.194 100.685 282.884 98.582 C 282.11 93.319 284.073 89.94 284.212 89.742 C 285.987 87.122 288.583 85.856 291.315 84.825 C 292.202 84.493 292.474 84.107 292.11 83.088 C 290.999 79.961 290.233 76.75 290.358 73.357 C 290.53 71.679 290.149 71.86 289.651 72.861 C 288.829 74.533 286.298 77.736 283.317 79.277 C 282.63 79.634 282.407 80.103 283.067 81.569 C 284.61 84.986 284.233 87.983 282.942 89.569 C 280.284 92.836 276.608 93.796 272.54 94.722 C 267.364 95.895 261.247 92.361 257.122 88.611 C 257.122 88.611 251.54 81.666 242.532 78.047 C 241.821 75.375 240.497 73.047 238.747 71.339 C 238.054 63.343 235.868 53.733 234.507 51.039 C 233.239 48.531 233.064 45.704 234.37 42.75 C 234.851 44.114 235.351 45.469 235.813 46.841 C 237.612 52.169 241.714 55.099 246.216 54.256 C 248.522 53.824 250.271 51.503 249.989 49.249 C 249.728 47.153 247.671 45.519 245.698 45.836 C 243.856 46.132 243.263 47.284 243.374 50.358 C 240.647 50.891 236.925 47.099 237.245 43.844 C 237.423 42.048 240.048 40.965 239.575 40.679 C 236.118 38.159 237.501 34.934 239.114 31.731 C 241.286 27.415 244.464 25.656 248.495 26.539 C 249.999 26.869 251.417 27.701 251.28 30.705 C 250.36 30.048 249.411 29.626 248.716 29.471 C 246.829 29.048 245.45 29.91 244.495 31.806 C 243.454 33.874 244.226 35.807 245.907 37.16 C 249.175 39.787 255.989 38.353 258.06 34.548 C 260.679 29.735 258.688 23.966 253.966 21.731 C 245.405 17.679 236.499 24.465 234.946 36.619 C 234.849 37.378 234.653 38.117 234.206 38.833 C 232.882 36.089 233.513 33.273 234.122 30.589 C 234.896 27.177 235.882 23.831 236.894 20.511 C 239.214 12.917 236.653 6.849 233.022 1.086 C 232.596 0.41 232.196 0.101 231.807 0.052 C 231.418 0.101 231.019 0.41 230.592 1.086 C 226.96 6.849 224.4 12.917 226.719 20.511 C 227.733 23.831 228.719 27.177 229.492 30.589 C 230.102 33.273 230.732 36.089 229.408 38.833 C 228.961 38.117 228.765 37.378 228.668 36.619 C 227.114 24.465 218.209 17.679 209.648 21.731 C 204.925 23.966 202.935 29.735 205.554 34.548 C 207.624 38.353 214.438 39.787 217.707 37.16 C 219.388 35.807 220.159 33.874 219.118 31.806 C 218.163 29.91 216.785 29.048 214.897 29.471 C 214.202 29.626 213.254 30.048 212.333 30.705 C 212.197 27.701 213.614 26.869 215.119 26.539 C 219.149 25.656 222.327 27.415 224.5 31.731 C 226.112 34.934 227.496 38.159 224.039 40.679 C 223.566 40.965 226.191 42.048 226.368 43.844 C 226.688 47.099 222.966 50.891 220.239 50.358 C 220.351 47.284 219.758 46.132 217.916 45.836 C 215.942 45.519 213.887 47.153 213.625 49.249 C 213.344 51.503 215.092 53.824 217.397 54.256 C 221.899 55.099 226.001 52.169 227.801 46.841 C 228.264 45.469 228.763 44.114 229.245 42.75 C 230.55 45.704 230.375 48.531 229.107 51.039 C 227.746 53.733 225.561 63.343 224.867 71.339 C 223.117 73.047 221.792 75.375 221.082 78.047 C 212.074 81.666 206.492 88.611 206.492 88.611 C 202.367 92.361 196.249 95.895 191.074 94.722 C 187.005 93.796 183.329 92.836 180.67 89.569 C 179.379 87.983 179.004 84.986 180.545 81.569 C 181.207 80.103 180.984 79.634 180.295 79.277 C 177.316 77.736 174.785 74.533 173.962 72.861 C 173.465 71.86 173.083 71.679 173.255 73.357 C 173.379 76.75 172.615 79.961 171.503 83.088 C 171.14 84.107 171.411 84.493 172.298 84.825 C 175.031 85.856 177.625 87.122 179.401 89.742 C 179.54 89.94 181.504 93.319 180.729 98.582 C 180.419 100.685 179.594 102.075 177.61 102.033 C 175.625 101.979 173.623 101.584 171.705 101.115 C 162.837 98.944 141.349 82.93 129.113 81.436 C 120.698 80.409 112.02 81.957 107.489 89.77 C 105.32 94.236 105.644 100.443 107.89 104.693 C 102.062 107.603 95.561 110.321 89.091 117.257 C 74.192 114.335 61.447 117.639 58.027 126.51 C 44.802 124.251 25.324 120.472 10.07 127.575 C 4.542 130.146 1.793 132.72 0.744 133.998 C -0.306 135.272 -0.352 136.677 1.307 135.65 C 2.149 135.133 3.005 133.959 4.496 132.863 C 15.659 124.834 33.701 126.637 46.123 128.212 C 49.828 128.679 52.36 129.207 56.884 130.076 C 56.575 132.281 57.455 134.423 58.189 135.009 C 58.937 135.202 59.123 133.496 59.184 132.797 C 59.231 132.103 59.354 131.45 59.725 130.466 C 71.127 132.631 91.624 135.295 106.192 130.925 C 107.17 130.611 107.983 130.153 107.821 129.227 C 107.4 128.007 104.585 129.038 103.126 129.347 C 88.929 133.075 74.339 129.416 60.712 126.842 C 62.797 120.001 75.381 116.458 87.209 119.735 C 85.602 122.244 84.074 126.062 85.116 129.771 C 86.946 130.033 85.772 125.077 90.49 120.491 C 107.281 124.53 123.261 136.434 140.8 136.619 C 148.598 136.7 155.005 134.558 158.587 129.818 C 162.911 124.097 160.441 117.168 158.063 114.35 C 153.06 108.41 139.952 100.165 113.603 104.812 C 115.163 104.056 117.023 103.751 118.775 103.326 C 130.773 100.941 145.253 102.44 154.264 108.14 C 157.539 110.211 167.629 116.069 172.901 114.984 C 175.013 114.416 176.681 113.849 177.944 113.325 C 186.304 110.353 204.003 103.688 214.365 102.303 C 220.189 101.52 226.005 101.135 231.807 101.158 C 237.608 101.135 243.425 101.52 249.249 102.303 C 259.61 103.688 277.31 110.353 285.669 113.325 C 286.933 113.849 288.601 114.416 290.712 114.984 C 295.985 116.069 306.075 110.211 309.349 108.14 C 318.36 102.44 332.841 100.941 344.839 103.326 C 346.591 103.751 348.45 104.056 350.011 104.812 C 323.661 100.165 310.554 108.41 305.55 114.35 C 303.173 117.168 300.702 124.097 305.026 129.818 C 308.608 134.558 315.015 136.7 322.813 136.619 C 340.353 136.434 356.333 124.53 373.124 120.491 C 377.841 125.077 376.667 130.033 378.497 129.771 C 379.54 126.062 378.011 122.244 376.405 119.735 C 388.231 116.458 400.815 120.001 402.901 126.842 C 389.274 129.416 374.685 133.075 360.487 129.347 C 359.028 129.038 356.214 128.007 355.792 129.227 C 355.63 130.153 356.442 130.611 357.421 130.925 C 371.989 135.295 392.485 132.631 403.888 130.466 C 404.259 131.45 404.382 132.103 404.429 132.797 C 404.491 133.496 404.677 135.202 405.425 135.009 C 406.159 134.423 407.038 132.281 406.729 130.076 C 411.253 129.207 413.786 128.679 417.491 128.212 C 429.913 126.637 447.954 124.834 459.118 132.863 C 460.608 133.959 461.464 135.133 462.306 135.65 C 463.966 136.677 463.919 135.272 462.87 133.998 Z " fill="rgb(0,35,101)"/></g></g></g></svg>