<?xml version="1.0" encoding="UTF-8"?>
<svg width="33px" height="33px" viewBox="0 0 33 33" version="1.1" xmlns="http://www.w3.org/2000/svg" xmlns:xlink="http://www.w3.org/1999/xlink">
    <!-- Generator: Sketch 55.2 (78181) - https://sketchapp.com -->
    <title>Custom Preset</title>
    <desc>Created with Sketch.</desc>
    <g id="Custom-Preset" stroke="none" stroke-width="1" fill="none" fill-rule="evenodd">
        <g id="like" transform="translate(0.000000, 2.000000)" fill="#5F6060" fill-rule="nonzero">
            <path d="M30.5922891,2.89439538 C28.9646543,1.02789663 26.706668,0 24.234375,0 C20.7572578,0 18.5558613,2.09878514 17.3214551,3.85949782 C17.0011875,4.31638419 16.7287441,4.77450821 16.5,5.20559946 C16.2712559,4.77450821 15.998877,4.31638419 15.6785449,3.85949782 C14.4441387,2.09878514 12.2427422,0 8.765625,0 C6.29333203,0 4.0353457,1.02796177 2.40764648,2.89446051 C0.855099609,4.67497551 0,7.05959148 0,9.60900963 C0,12.3841351 1.07204883,14.9652761 3.37379883,17.7318683 C5.43094922,20.2045525 8.39044336,22.7533193 11.8174805,25.7047114 C13.0944902,26.8045218 14.4150703,27.9418522 15.8209863,29.1850339 L15.8632031,29.2224239 C16.0454766,29.3837085 16.2727383,29.4642857 16.5,29.4642857 C16.7272617,29.4642857 16.9545234,29.3836434 17.1367969,29.2224239 L17.1790137,29.1850339 C18.5849297,27.9418522 19.9055098,26.8045869 21.1827129,25.7045812 C24.6095566,22.7533844 27.5690508,20.2046176 29.6262012,17.7318683 C31.9279512,14.9652109 33,12.3841351 33,9.60900963 C33,7.05959148 32.1449004,4.67497551 30.5922891,2.89439538 Z M19.9284551,24.2173229 C18.8275957,25.1653588 17.6946387,26.141079 16.5,27.1906669 C15.3054258,26.1412092 14.1724043,25.165424 13.0713516,24.2171926 C6.36442383,18.441104 1.93359375,14.6251843 1.93359375,9.60900963 C1.93359375,7.53562878 2.61711914,5.60985336 3.85829297,4.18649662 C5.11371094,2.74698536 6.85645898,1.95417611 8.765625,1.95417611 C11.4165176,1.95417611 13.1301328,3.60467325 14.1007969,4.98927217 C14.9714941,6.23108594 15.4258242,7.48293116 15.5807695,7.96346307 C15.7103848,8.36569765 16.0814414,8.63791438 16.5,8.63791438 C16.9185586,8.63791438 17.2896152,8.36569765 17.4192305,7.96346307 C17.5741758,7.48293116 18.0285059,6.23108594 18.8992031,4.98920703 C19.8698672,3.60467325 21.5834824,1.95417611 24.234375,1.95417611 C26.143541,1.95417611 27.8862891,2.74698536 29.1416426,4.18649662 C30.3828809,5.60985336 31.0664063,7.53562878 31.0664063,9.60900963 C31.0664063,14.6251843 26.6355762,18.441104 19.9284551,24.2173229 Z" id="Shape"></path>
        </g>
    </g>
</svg>