<svg version="1.2" xmlns="http://www.w3.org/2000/svg" xmlns:xlink="http://www.w3.org/1999/xlink" overflow="visible" preserveAspectRatio="none" viewBox="0 -0.5058708414872797 47 47" width="32" height="32"><g><path xmlns:default="http://www.w3.org/2000/svg" d="M42.6,46H4.5C2,46,0,44.1,0,41.7V4.4C0,2,2,0,4.5,0h38.1C45,0,47,2,47,4.4v37.3C47,44.1,45,46,42.6,46z M4.5,1.9  C3.1,1.9,2,3,2,4.4v37.3c0,1.3,1.1,2.4,2.5,2.4h38.1c1.4,0,2.5-1.1,2.5-2.4V4.4c0-1.3-1.1-2.4-2.5-2.4H4.5z M40.4,42H6.6  C5.2,42,4,40.8,4,39.4V21.3c0-0.5,0.4-0.9,1-0.9h7.2c0.3,0,0.6,0.1,0.8,0.4c0.2,0.2,0.2,0.5,0.2,0.8c-0.3,1-0.5,2-0.5,3  c0,5.8,4.9,10.6,10.8,10.6c6,0,10.8-4.7,10.8-10.6c0-1-0.2-2-0.5-3c-0.1-0.3,0-0.6,0.2-0.8c0.2-0.2,0.5-0.4,0.8-0.4h7.2  c0.5,0,1,0.4,1,0.9v18.1C43,40.8,41.8,42,40.4,42z M5.9,22.3v17.1c0,0.4,0.3,0.7,0.7,0.7h33.7c0.4,0,0.7-0.3,0.7-0.7V22.3h-5  c0.2,0.8,0.2,1.6,0.2,2.3c0,6.9-5.7,12.4-12.8,12.4s-12.8-5.6-12.8-12.4c0-0.8,0.1-1.6,0.2-2.3H5.9z M23.5,33.2  c-4.9,0-8.8-3.9-8.8-8.6c0-4.7,4-8.6,8.8-8.6c4.9,0,8.8,3.9,8.8,8.6C32.3,29.4,28.4,33.2,23.5,33.2z M23.5,17.9  c-3.8,0-6.9,3-6.9,6.7c0,3.7,3.1,6.7,6.9,6.7c3.8,0,6.9-3,6.9-6.7C30.4,20.9,27.3,17.9,23.5,17.9z M39.2,15h-5.4  c-1.5,0-2.8-1.1-2.8-2.6V7.6C31,6.1,32.3,5,33.8,5h5.4C40.7,5,42,6.1,42,7.6v4.9C42,13.9,40.7,15,39.2,15z M33.8,7  C33.4,7,33,7.3,33,7.7v4.7c0,0.4,0.3,0.7,0.8,0.7h5.5c0.4,0,0.8-0.3,0.8-0.7V7.7C40,7.3,39.7,7,39.2,7H33.8z" style="fill: rgb(99, 99, 99);" vector-effect="non-scaling-stroke"/></g></svg>