<svg width="30" height="30" viewBox="0 0 30 30" fill="none" xmlns="http://www.w3.org/2000/svg">
<g clip-path="url(#clip0_32057_4133)">
<path d="M15 4.25146C8.79679 4.25146 3.75 8.45433 3.75 13.6203C3.75 18.6661 8.13085 22.6855 13.9403 22.9698C14.3343 22.9878 14.6693 22.6854 14.6886 22.2914C14.7079 21.8974 14.4042 21.5624 14.0101 21.5431C8.97525 21.2967 5.17844 17.8907 5.17844 13.6203C5.17844 9.24197 9.58443 5.67981 15 5.67981C20.4157 5.67981 24.8217 9.24188 24.8217 13.6203C24.8217 17.6949 19.6194 22.1176 14.4807 24.3807C14.1196 24.5398 13.9559 24.9612 14.1149 25.3222C14.2326 25.5896 14.4944 25.7487 14.7689 25.7487C14.8651 25.7487 14.9628 25.7292 15.0564 25.6879C17.812 24.4744 20.5289 22.6829 22.5107 20.7726C24.9571 18.4143 26.2502 15.9412 26.2502 13.6203C26.25 8.45433 21.2033 4.25146 15 4.25146Z" fill="#6D6D6D"/>
<path d="M9.47159 11.3369C9.35826 11.1954 9.20104 11.1201 9.01782 11.1201C8.83469 11.1201 8.67842 11.1969 8.56576 11.3421C8.46253 11.4763 8.41254 11.66 8.41254 11.9041V15.631C8.41254 15.8921 8.46615 16.0824 8.57662 16.2129C8.69394 16.3517 8.87564 16.422 9.11657 16.422H11.1418C11.3338 16.422 11.4855 16.3654 11.5927 16.2535C11.6988 16.1455 11.7534 16.0034 11.7534 15.8329C11.7534 15.668 11.6975 15.5222 11.5917 15.4114C11.4851 15.2961 11.3331 15.2366 11.1417 15.2366H9.63119V11.904C9.63119 11.6547 9.57891 11.4692 9.47159 11.3369Z" fill="#6D6D6D"/>
<path d="M12.6784 11.1201C12.497 11.1201 12.3413 11.1966 12.228 11.3414C12.1249 11.4734 12.0725 11.6627 12.0725 11.9041V15.7172C12.0725 15.9633 12.1246 16.1484 12.2316 16.283C12.3441 16.4277 12.499 16.505 12.6783 16.505C12.8613 16.505 13.0187 16.4289 13.1333 16.2848C13.2394 16.1502 13.293 15.9594 13.293 15.7171V11.904C13.293 11.6602 13.239 11.4695 13.1325 11.3373C13.0172 11.1951 12.8602 11.1201 12.6784 11.1201Z" fill="#6D6D6D"/>
<path d="M15.1419 13.6503L16.3577 15.8301C16.3586 15.8318 16.3596 15.8334 16.3605 15.8351C16.3892 15.883 16.418 15.9305 16.4464 15.9773L16.4976 16.0617C16.5549 16.1543 16.6114 16.2282 16.6713 16.2895C16.7421 16.3626 16.8174 16.4158 16.9009 16.4517C16.9898 16.488 17.08 16.505 17.1799 16.505C17.4197 16.505 17.8219 16.3975 17.8219 15.677V11.8717C17.8219 11.6402 17.7759 11.4652 17.6811 11.337C17.5753 11.1949 17.4237 11.1201 17.2423 11.1201C17.0653 11.1201 16.9162 11.195 16.8109 11.3365C16.7159 11.4674 16.6704 11.6419 16.6704 11.8718V14.0258L15.4145 11.8042L15.35 11.6857L15.2845 11.5655C15.2313 11.4714 15.1839 11.4009 15.1379 11.3468C15.0832 11.2798 15.0169 11.2253 14.9408 11.1849C14.8615 11.1416 14.7684 11.1201 14.6581 11.1201C14.5188 11.1201 14.3895 11.1648 14.274 11.253C14.1624 11.3363 14.0806 11.447 14.0322 11.5809C14.0316 11.5826 14.031 11.5843 14.0305 11.586C13.9939 11.6965 13.9761 11.8384 13.9761 12.0198V15.754C13.9761 15.9749 14.0239 16.1529 14.1181 16.2831C14.119 16.2844 14.12 16.2857 14.1209 16.2869C14.2299 16.4296 14.3812 16.505 14.5587 16.505C14.7334 16.505 14.8833 16.4304 14.9921 16.2893C15.0915 16.1597 15.1418 15.9797 15.1418 15.7539V13.6503H15.1419Z" fill="#6D6D6D"/>
<path d="M21.3945 12.338C21.581 12.338 21.7276 12.2836 21.8302 12.1762C21.9298 12.0714 21.9802 11.9345 21.9802 11.769C21.9802 11.6046 21.9295 11.4686 21.8297 11.3647C21.7288 11.2574 21.582 11.2021 21.3945 11.2021H19.1793C19.0311 11.2021 18.9028 11.2301 18.7979 11.2855C18.6816 11.3482 18.5963 11.446 18.5427 11.577C18.4971 11.6876 18.475 11.8241 18.475 11.9939V15.631C18.475 15.8924 18.5293 16.083 18.641 16.2136C18.7567 16.3515 18.9382 16.4221 19.1794 16.4221H21.4592C21.6459 16.4221 21.7932 16.3658 21.8974 16.2547C21.9975 16.1466 22.0478 16.0095 22.0478 15.8464C22.0478 15.6779 21.9975 15.5381 21.8984 15.4309C21.7916 15.3185 21.6445 15.2626 21.4593 15.2626H19.6953V14.2659H21.2439C21.4308 14.2659 21.5755 14.2101 21.6744 14.0999C21.7686 13.9941 21.8161 13.861 21.8161 13.7035C21.8161 13.543 21.7667 13.4097 21.6696 13.3071C21.5731 13.2015 21.4292 13.1466 21.244 13.1466H19.6954V12.3379H21.3945V12.338Z" fill="#6D6D6D"/>
</g>
<defs>
<clipPath id="clip0_32057_4133">
<rect width="22.5" height="22.5" fill="white" transform="translate(3.75 3.75)"/>
</clipPath>
</defs>
</svg>
