<svg fill="#000000" xmlns="http://www.w3.org/2000/svg"  viewBox="0 0 48 48" width="32px" height="32px"><path fill="none" stroke="#000000" stroke-miterlimit="10" stroke-width="3" d="M42.506,22.237 c0-8.677-8.748-15.737-19.499-15.737S3.505,13.56,3.505,22.237c0,7.779,6.937,14.294,16.308,15.527 c0.635,0.136,1.5,0.417,1.718,0.956c0.196,0.49,0.128,1.258,0.062,1.753c0,0-0.228,1.368-0.278,1.66 c-0.085,0.49-0.168,2.079,1.795,1C32.17,38.151,42.506,31.982,42.506,22.237z"/><path d="M15.345,26.863h-3.879c-0.565,0-1.023-0.455-1.023-1.016v-7.694c0-0.56,0.459-1.015,1.023-1.015 c0.565,0,1.023,0.455,1.023,1.015v6.678h2.856c0.565,0,1.023,0.455,1.023,1.015C16.369,26.406,15.91,26.863,15.345,26.863z"/><path d="M19.357,25.846c0,0.56-0.459,1.016-1.023,1.016c-0.565,0-1.023-0.455-1.023-1.016v-7.694c0-0.56,0.459-1.015,1.023-1.015 c0.565,0,1.023,0.455,1.023,1.015V25.846z"/><path d="M28.697,25.846c0,0.439-0.28,0.826-0.7,0.963c-0.106,0.035-0.216,0.053-0.325,0.053c-0.32,0-0.626-0.152-0.818-0.406 l-3.976-5.369v4.759c0,0.56-0.459,1.016-1.025,1.016c-0.565,0-1.025-0.455-1.025-1.016v-7.694c0-0.437,0.282-0.824,0.7-0.963 c0.106-0.035,0.215-0.052,0.325-0.052c0.319,0,0.626,0.152,0.818,0.406l3.978,5.369v-4.761c0-0.56,0.46-1.015,1.025-1.015 c0.565,0,1.023,0.455,1.023,1.015V25.846z"/><path d="M34.975,20.983c0.565,0,1.025,0.455,1.025,1.016c0,0.56-0.459,1.015-1.025,1.015h-2.856v1.817h2.856 c0.565,0,1.025,0.455,1.025,1.015c0,0.56-0.46,1.016-1.025,1.016h-3.879c-0.563,0-1.023-0.455-1.023-1.016v-3.845 c0-0.001,0-0.001,0-0.001v-0.001v-3.842c0-0.001,0-0.001,0-0.003c0-0.56,0.459-1.015,1.023-1.015h3.879 c0.565,0,1.025,0.455,1.025,1.015c0,0.56-0.459,1.015-1.025,1.015h-2.856v1.817h2.856V20.983z"/></svg>