<?xml version="1.0" encoding="UTF-8"?>
<svg width="33px" height="33px" viewBox="0 0 33 33" version="1.1" xmlns="http://www.w3.org/2000/svg" xmlns:xlink="http://www.w3.org/1999/xlink">
    <!-- Generator: Sketch 55.2 (78181) - https://sketchapp.com -->
    <title>Custom Preset Copy</title>
    <desc>Created with Sketch.</desc>
    <g id="Custom-Preset-Copy" stroke="none" stroke-width="1" fill="none" fill-rule="evenodd">
        <rect fill="#FFFFFF" opacity="0" x="0" y="0" width="33" height="33"></rect>
        <g id="user" transform="translate(4.000000, 0.000000)" fill="#5F6060" fill-rule="nonzero">
            <path d="M12.7783659,14.9823671 C14.8366676,14.9823671 16.6187573,14.2441406 18.0752775,12.7876205 C19.531323,11.3313376 20.2697868,9.54948527 20.2697868,7.49094626 C20.2697868,5.43311916 19.5315603,3.65102947 18.0750402,2.19427207 C16.61852,0.738226505 14.8364304,0 12.7783659,0 C10.719827,0 8.93797456,0.738226505 7.48169172,2.19450935 C6.02540888,3.65079219 5.28694509,5.43288188 5.28694509,7.49094626 C5.28694509,9.54948527 6.02540888,11.3315749 7.48169172,12.7878577 C8.93844918,14.2439033 10.7205388,14.9823671 12.7783659,14.9823671 Z M8.77068121,3.48326155 C9.88810605,2.36583671 11.1989267,1.82266719 12.7783659,1.82266719 C14.3575679,1.82266719 15.6686259,2.36583671 16.786288,3.48326155 C17.9037127,4.60092361 18.4471196,5.91198157 18.4471196,7.49094626 C18.4471196,9.07038551 17.9037127,10.3812062 16.786288,11.4988683 C15.6686259,12.6165304 14.3575679,13.1596999 12.7783659,13.1596999 C11.1994013,13.1596999 9.88858061,12.6162931 8.77068121,11.4988683 C7.65301914,10.3814435 7.10961228,9.07038551 7.10961228,7.49094626 C7.10961228,5.91198157 7.65301914,4.60092361 8.77068121,3.48326155 Z" id="Shape"></path>
            <path d="M25.8863354,23.916545 C25.8443341,23.3104921 25.7593823,22.6493867 25.6343276,21.9512631 C25.5080863,21.2479191 25.3455388,20.5830169 25.1509565,19.975303 C24.9497299,19.3471817 24.6766027,18.7268911 24.3384565,18.1324657 C23.9879709,17.5154972 23.5760258,16.9782601 23.1137741,16.5361785 C22.630403,16.0736894 22.0385879,15.7018472 21.3542275,15.4306184 C20.6722401,15.1608133 19.9164537,15.0241311 19.1079877,15.0241311 C18.7904862,15.0241311 18.4834258,15.1544064 17.8904242,15.5404862 C17.5254637,15.7784937 17.0985689,16.0537566 16.6220794,16.3582068 C16.214643,16.6178081 15.6626935,16.8610361 14.9809433,17.0812464 C14.3158039,17.2964734 13.6404607,17.4056294 12.9736602,17.4056294 C12.3073342,17.4056294 11.6319911,17.2964734 10.9663771,17.0812464 C10.2853388,16.8612734 9.733152,16.6180454 9.32642744,16.3584441 C8.85444652,16.0568414 8.42731451,15.7815785 8.05689616,15.540249 C7.46436916,15.1541691 7.15730867,15.0238938 6.83980724,15.0238938 C6.03110397,15.0238938 5.27555491,15.1608133 4.59380478,15.4308557 C3.90991894,15.7016099 3.31786656,16.0734521 2.8340209,16.5364158 C2.37176914,16.9787347 1.95982405,17.5157346 1.6095758,18.1324657 C1.27190421,18.7268911 0.99853972,19.3469444 0.797313084,19.9755403 C0.602968005,20.5832542 0.440420561,21.2479191 0.314179322,21.9512631 C0.188887266,22.6484375 0.104172766,23.3097802 0.0621714673,23.9172569 C0.0208820093,24.5112077 0,25.1293626 0,25.7539245 C0,27.3775007 0.51611786,28.6918808 1.5338785,29.6612332 C2.5390625,30.6177716 3.86886682,31.1028037 5.48651064,31.1028037 L20.4627081,31.1028037 C22.0798773,31.1028037 23.4096817,30.6177716 24.4151029,29.6612332 C25.4331009,28.6925927 25.9492187,27.3777381 25.9492187,25.7536872 C25.9492187,25.1269896 25.9278621,24.5088347 25.8863354,23.916545 L25.8863354,23.916545 Z M23.1583856,28.3406834 C22.4941954,28.9728388 21.6124051,29.2801366 20.4624708,29.2801366 L5.48651064,29.2801366 C4.33633905,29.2801366 3.4545488,28.9728388 2.79059579,28.3409207 C2.1392195,27.7208674 1.82266719,26.8744341 1.82266719,25.7539245 C1.82266719,25.1711266 1.84188811,24.5956848 1.88033002,24.0432608 C1.91782269,23.5012778 1.99446917,22.9059032 2.10813376,22.2732732 C2.22037455,21.648474 2.3632265,21.0621167 2.53313013,20.5312865 C2.69615213,20.0222875 2.91849812,19.5182717 3.19423553,19.0327651 C3.45739629,18.5700387 3.76018549,18.1730432 4.09429764,17.8531688 C4.40681587,17.5539391 4.8007265,17.3090501 5.26487662,17.1253833 C5.69414428,16.9554797 6.17656614,16.8624598 6.70027745,16.8484594 C6.76410994,16.8823927 6.87777453,16.9471743 7.06191589,17.0672459 C7.43660559,17.311423 7.86848351,17.590008 8.34592218,17.8949328 C8.88410851,18.2380622 9.57748611,18.5479702 10.4058849,18.8154023 C11.2527928,19.0892414 12.1165486,19.2282966 12.9738975,19.2282966 C13.8312464,19.2282966 14.6952395,19.0892414 15.5416728,18.8156396 C16.3707834,18.5477329 17.0639238,18.2380622 17.602822,17.8944582 C18.0914136,17.5821773 18.5111894,17.3116603 18.8858791,17.0672459 C19.0700204,16.9474117 19.183685,16.8823927 19.2475175,16.8484594 C19.7714661,16.8624598 20.253888,16.9554797 20.683393,17.1253833 C21.1473058,17.3090501 21.5412164,17.5541764 21.8537347,17.8531688 C22.1878468,18.1728059 22.490636,18.5698014 22.7537967,19.0330023 C23.0297715,19.5182717 23.2523547,20.0225248 23.4151395,20.5310492 C23.5852804,21.0625913 23.7283696,21.6487113 23.8403731,22.273036 C23.9538004,22.9068524 24.0306841,23.5024642 24.0681769,24.0434981 L24.0681769,24.0439727 C24.106856,24.5942611 24.1263143,25.1694655 24.1265515,25.7539245 C24.1263143,26.8746715 23.8097619,27.7208674 23.1583856,28.3406834 L23.1583856,28.3406834 Z" id="Shape"></path>
        </g>
    </g>
</svg>